HIERARCHY
ROOT Hips
{
	OFFSET 0.000000 0.000000 0.000000 
	CHANNELS 6 Xposition Yposition Zposition Yrotation Zrotation Xrotation 
	JOINT Lumbar
	{
		OFFSET 0.000000 0.000000 0.000000 
		CHANNELS 3 Zrotation Xrotation Yrotation
		JOINT Neck
		{
			OFFSET 0.000000 0.445665 0.000000 
			CHANNELS 3 Zrotation Xrotation Yrotation
			End Site
			{
				OFFSET 0.000000 0.227535 0.000000 
			}
		}
		JOINT RightShoulder
		{
			OFFSET 0.019635 0.377685 0.194865 
			CHANNELS 3 Zrotation Xrotation Yrotation
			JOINT RightElbow
			{
				OFFSET 0.000000 -0.243375 0.000000 
				CHANNELS 2 Zrotation Yrotation
				JOINT RightWrist
				{
					OFFSET 0.000000 -0.264825 0.000000 
					CHANNELS 2 Zrotation Xrotation
					End Site
					{
						OFFSET 0.006600 -0.176220 0.000990 
					}
				}
			}
		}
		JOINT LeftShoulder
		{
			OFFSET 0.019635 0.377685 -0.194865 
			CHANNELS 3 Zrotation Xrotation Yrotation
			JOINT LeftElbow
			{
				OFFSET 0.000000 -0.243375 0.000000 
				CHANNELS 2 Zrotation Yrotation
				JOINT LeftWrist
				{
					OFFSET 0.000000 -0.264825 0.000000 
					CHANNELS 2 Zrotation Xrotation
					End Site
					{
						OFFSET 0.006600 -0.176220 -0.000990 
					}
				}
			}
		}
	}
	JOINT RightHip
	{
		OFFSET 0.052140 -0.069960 0.075570 
		CHANNELS 3 Zrotation Xrotation Yrotation
		JOINT RightKnee
		{
			OFFSET 0.000000 -0.402270 0.000000 
			CHANNELS 1 Zrotation
			JOINT RightAnkle
			{
				OFFSET 0.000000 -0.404085 0.000000 
				CHANNELS 3 Zrotation Xrotation Yrotation
				End Site
				{
					OFFSET 0.204105 -0.089430 0.008415 
				}
			}
		}
	}
	JOINT LeftHip
	{
		OFFSET 0.052140 -0.069960 -0.075570 
		CHANNELS 3 Zrotation Xrotation Yrotation
		JOINT LeftKnee
		{
			OFFSET 0.000000 -0.402270 0.000000 
			CHANNELS 1 Zrotation
			JOINT LeftAnkle
			{
				OFFSET 0.000000 -0.404085 0.000000 
				CHANNELS 3 Zrotation Xrotation Yrotation
				End Site
				{
					OFFSET 0.204105 -0.089430 -0.008415 
				}
			}
		}
	}
}
MOTION
Frames: 17
Frame Time: 0.02
-0 0.95578 0 179.25555 0 -5.74569 7.16697 5.83744 -3.75468 -17.26113 7.04618 1.74338 12.35821 -20.99411 19.62474 11.04985 81.88058 -1.34038 -3.96552 13.90122 5.01693 -15.71975 9.59128 -80.55529 -3.13713 2.83807 -6.08126 6.8686 -0.7517 -6.29153 -11.51516 -2.52531 -8.45613 -9.20772 5.37212 20.17752 -0.06755 -5.52784 3.36242 8.5456
0.00047 0.95584 -0.00014 179.28372 0 -5.75243 7.13907 5.84131 -3.75743 -17.29172 7.03096 1.72042 12.55935 -21.01847 19.64275 11.12345 81.82109 -1.36469 -4.00214 13.92701 5.06589 -15.79999 9.56663 -80.54883 -3.13914 2.82645 -6.0262 6.88952 -0.69833 -6.35449 -11.52376 -2.52227 -8.53233 -9.17714 5.38911 20.08658 -0.06603 -5.55786 3.36108 8.62184
0.00094 0.9559 -0.00028 179.31166 0 -5.75913 7.11 5.84506 -3.76016 -17.32322 7.01638 1.69787 12.76106 -21.04362 19.66218 11.197 81.76218 -1.38902 -4.03891 13.95405 5.11423 -15.88014 9.54193 -80.54232 -3.14105 2.81488 -5.97044 6.91043 -0.64481 -6.41826 -11.53226 -2.51929 -8.60859 -9.14626 5.40612 19.99717 -0.06471 -5.58787 3.3597 8.69672
0.00143 0.95596 -0.00042 179.3392 0 -5.76574 7.07803 5.8482 -3.763 -17.35313 7.00418 1.67617 12.96046 -21.07135 19.68427 11.27063 81.70526 -1.41336 -4.07618 13.97983 5.16039 -15.9594 9.51707 -80.53606 -3.1426 2.80339 -5.91258 6.93141 -0.59088 -6.48484 -11.54019 -2.51656 -8.68508 -9.11438 5.42334 19.91355 -0.06437 -5.61746 3.35827 8.76619
0.00184 0.95601 -0.00054 179.36919 0 -5.77283 7.06393 5.85439 -3.76546 -17.38461 6.97932 1.64921 13.16403 -21.08443 19.68845 11.34329 81.63808 -1.4373 -4.11029 14.00426 5.21786 -16.04178 9.49337 -80.52912 -3.14607 2.79147 -5.86735 6.95188 -0.53996 -6.53523 -11.55086 -2.51256 -8.7595 -9.08842 5.43943 19.79991 -0.0591 -5.64847 3.35723 8.86342
0.00241 0.95608 -0.00071 179.39374 0 -5.7789 7.01034 5.85426 -3.76856 -17.41742 6.98128 1.63391 13.36409 -21.12912 19.7331 11.4183 81.5925 -1.46226 -4.15139 14.03699 5.25152 -16.11854 9.46702 -80.52318 -3.14547 2.78046 -5.7944 6.97349 -0.48218 -6.62072 -11.5559 -2.51122 -8.83879 -9.04954 5.4579 19.74946 -0.06407 -5.67698 3.35531 8.90245
0.00338 0.9562 -0.00098 179.40512 0 -5.78233 6.85637 5.83475 -3.77501 -17.41922 7.05947 1.64809 13.51682 -21.26022 19.87311 11.49919 81.60874 -1.48918 -4.21074 14.05243 5.2166 -16.17298 9.43427 -80.52359 -3.13309 2.77173 -5.6488 6.99817 -0.40782 -6.80158 -11.5436 -2.51773 -8.92931 -8.9761 5.48371 19.88248 -0.10024 -5.69455 3.35138 8.77066
0.00451 0.95633 -0.00129 179.41056 0 -5.7847 6.66067 5.80923 -3.78191 -17.43114 7.16406 1.6751 13.67545 -21.42356 20.05711 11.58265 81.64637 -1.51731 -4.27741 14.08624 5.15818 -16.22341 9.39858 -80.52443 -3.11669 2.76393 -5.47427 7.024 -0.32605 -7.01834 -11.52597 -2.52686 -9.02508 -8.88925 5.51179 20.07797 -0.14629 -5.71036 3.3465 8.58178
0.0056 0.95646 -0.00159 179.41771 0 -5.78748 6.47833 5.78763 -3.78749 -17.45797 7.25571 1.69735 13.85305 -21.57289 20.23189 11.66543 81.67282 -1.54548 -4.34149 14.13459 5.11223 -16.27975 9.36372 -80.5226 -3.10242 2.75585 -5.31032 7.04939 -0.24601 -7.22001 -11.51193 -2.53449 -9.12023 -8.80782 5.5384 20.23897 -0.18591 -5.72956 3.34179 8.42546
0.00655 0.95658 -0.00188 179.42958 0 -5.79064 6.32007 5.76084 -3.79742 -17.39266 7.3528 1.71287 13.92955 -21.71944 20.36136 11.74617 81.7055 -1.57117 -4.40245 14.07582 5.0585 -16.31742 9.3313 -80.53081 -3.08678 2.74723 -5.15749 7.07453 -0.17278 -7.41666 -11.49286 -2.5434 -9.20865 -8.72958 5.56698 20.42496 -0.23356 -5.73773 3.33817 8.24141
0.00784 0.95672 -0.00219 179.42953 0 -5.79263 6.10121 5.74367 -3.79886 -17.53394 7.44299 1.74821 14.23017 -21.87952 20.59541 11.83172 81.73021 -1.60229 -4.47166 14.25773 5.01569 -16.39479 9.29272 -80.51872 -3.07315 2.73988 -4.97429 7.10032 -0.08376 -7.63206 -11.48315 -2.55028 -9.31141 -8.6411 5.59188 20.57468 -0.26702 -5.76859 3.33205 8.10131
0.00999 0.95693 -0.00249 179.40389 0 -5.7927 5.7284 5.75266 -3.77215 -18.13693 7.52325 1.81037 15.04352 -22.06791 21.10823 11.93074 81.72836 -1.64844 -4.56203 14.98571 5.00666 -16.56706 9.24164 -80.44614 -3.06527 2.73663 -4.71675 7.12903 0.04906 -7.89273 -11.49927 -2.55075 -9.46111 -8.53047 5.60709 20.60095 -0.25784 -5.86147 3.31951 8.09891
0.01248 0.95717 -0.0028 179.3653 0 -5.79136 5.29451 5.77195 -3.73727 -18.96626 7.59275 1.89591 16.10101 -22.26864 21.72365 12.03452 81.71769 -1.70004 -4.66062 15.97576 5.01021 -16.78184 9.18419 -80.35396 -3.05976 2.7347 -4.42897 7.15811 0.19753 -8.17072 -11.52529 -2.54901 -9.62381 -8.40918 5.61835 20.59009 -0.23454 -5.97746 3.30448 8.14235
0.01485 0.95739 -0.00311 179.32892 0 -5.79003 4.8877 5.78768 -3.70977 -19.76304 7.65692 1.98795 17.1163 -22.46499 22.29286 12.13546 81.71052 -1.74884 -4.75508 16.92164 5.00891 -16.98814 9.12659 -80.27355 -3.05362 2.73129 -4.1537 7.18606 0.337 -8.43911 -11.5476 -2.54853 -9.77447 -8.29124 5.63072 20.60142 -0.21802 -6.08358 3.29044 8.16317
0.01708 0.95761 -0.0034 179.30818 0 -5.79161 4.48615 5.79824 -3.66877 -20.26774 7.76508 2.0112 17.84457 -22.6589 22.86588 12.23881 81.70595 -1.79872 -4.85062 17.55513 5.00157 -17.15068 9.0799 -80.18096 -3.04521 2.7306 -3.88354 7.21801 0.48309 -8.71553 -11.56621 -2.5475 -9.9498 -8.18026 5.64597 20.59233 -0.19912 -6.18698 3.27688 8.18927
0.0197 0.95784 -0.00374 179.25144 0 -5.78647 4.05486 5.82237 -3.65148 -21.42887 7.77879 2.17924 19.22474 -22.85838 23.44969 12.33888 81.69398 -1.84805 -4.94682 18.89712 5.01204 -17.41184 9.01131 -80.10922 -3.04244 2.72583 -3.5948 7.24183 0.62103 -8.97951 -11.59517 -2.54648 -10.07853 -8.051 5.65436 20.61632 -0.18319 -6.30157 3.26182 8.21635
0.02322 0.95808 -0.00421 179.10262 0 -5.76566 3.59646 5.87887 -3.72344 -24.39393 7.53447 2.77635 22.37776 -23.08923 24.08286 12.42335 81.66091 -1.89144 -5.03368 22.16696 5.0506 -17.95861 8.86417 -80.09815 -3.05241 2.69874 -3.27134 7.24205 0.71477 -9.1996 -11.64842 -2.55113 -10.06015 -7.88521 5.64406 20.73828 -0.16724 -6.44112 3.24276 8.23246
